<svg width="9" height="11" viewBox="0 0 9 11" fill="none" xmlns="http://www.w3.org/2000/svg">
<path d="M8.98106 5.1511C8.82954 6.19005 8.37498 7.07508 7.65526 7.80619C7.23859 8.19099 6.85979 8.61426 6.44311 8.99906C5.83703 9.65321 5.23095 10.3458 4.62487 11C3.33696 9.65321 2.08692 8.49883 0.912642 7.229C0.230803 6.45941 -0.0343559 5.45894 0.00352397 4.41999C0.0414039 2.18817 1.746 0.264192 3.86727 0.0333139C6.25371 -0.236043 8.29922 1.14922 8.9053 3.41952C9.05682 3.88127 8.98106 5.07414 8.98106 5.1511ZM4.51123 6.07461C5.30671 6.07461 5.98855 5.42046 5.98855 4.61239C5.98855 3.80431 5.30671 3.11168 4.54911 3.11168C3.79151 3.11168 3.0718 3.80431 3.0718 4.57391C3.0718 5.38198 3.71575 6.07461 4.51123 6.07461Z" fill="#BB955C"/>
</svg>
