<svg width="16" height="16" viewBox="0 0 16 16" fill="none" xmlns="http://www.w3.org/2000/svg">
<path d="M13.4487 9.99501C12.8888 9.41417 12.1609 9.41417 11.5776 9.99501C11.139 10.4318 10.705 10.8639 10.2664 11.3007C10.145 11.4215 10.0471 11.4448 9.9024 11.3751C9.63643 11.2078 9.31912 11.087 9.05315 10.915C7.7886 10.1158 6.72003 9.0982 5.77278 7.94117C5.31083 7.36034 4.9002 6.75627 4.60622 6.05462C4.55956 5.91058 4.55956 5.83623 4.68088 5.71542C5.14284 5.30186 5.55347 4.86972 5.9921 4.43293C6.59871 3.82886 6.59871 3.12721 5.9921 2.52315C5.62813 2.16071 5.28749 1.8215 4.94686 1.48229C4.58289 1.11985 4.24226 0.757409 3.87829 0.418201C3.31834 -0.1394 2.59041 -0.1394 2.00713 0.418201C1.56851 0.854989 1.13455 1.28713 0.69592 1.72392C0.280625 2.13747 0.0659787 2.62073 0.0146501 3.17368C-0.0600097 4.07049 0.159303 4.93942 0.476607 5.78512C1.13455 7.55085 2.12845 9.07496 3.31834 10.5015C4.94686 12.4392 6.88801 13.9633 9.15114 15.0506C10.173 15.5338 11.2183 15.9195 12.3335 15.9939C13.1361 16.0403 13.8174 15.8266 14.3727 15.2179C14.7366 14.7811 15.1752 14.4186 15.5625 14.0097C16.1458 13.4057 16.1458 12.6808 15.5625 12.1C14.8579 11.3983 14.1533 10.6967 13.4487 9.99501Z" fill="#BB955C"/>
</svg>
